<mxfile host="app.diagrams.net" modified="2023-05-19T12:54:16.255Z" agent="Mozilla/5.0 (Windows NT 10.0; Win64; x64) AppleWebKit/537.36 (KHTML, like Gecko) Chrome/113.0.0.0 Safari/537.36" etag="irzvtHw5h-vd5my9S5f_" version="21.2.9" type="device">
  <diagram name="Strona-1" id="CH3fYYv1wVLw9lZq92jd">
    <mxGraphModel dx="1674" dy="768" grid="1" gridSize="10" guides="1" tooltips="1" connect="1" arrows="1" fold="1" page="1" pageScale="1" pageWidth="827" pageHeight="1169" math="0" shadow="0">
      <root>
        <mxCell id="0" />
        <mxCell id="1" parent="0" />
        <mxCell id="yxJLWmAVken-WrYLLM8N-1" value="Baza Danych" style="shape=umlLifeline;perimeter=lifelinePerimeter;whiteSpace=wrap;html=1;container=1;dropTarget=0;collapsible=0;recursiveResize=0;outlineConnect=0;portConstraint=eastwest;newEdgeStyle={&quot;edgeStyle&quot;:&quot;elbowEdgeStyle&quot;,&quot;elbow&quot;:&quot;vertical&quot;,&quot;curved&quot;:0,&quot;rounded&quot;:0};participant=umlEntity;" vertex="1" parent="1">
          <mxGeometry x="700" y="30" width="40" height="730" as="geometry" />
        </mxCell>
        <mxCell id="yxJLWmAVken-WrYLLM8N-13" value="" style="html=1;points=[];perimeter=orthogonalPerimeter;outlineConnect=0;targetShapes=umlLifeline;portConstraint=eastwest;newEdgeStyle={&quot;edgeStyle&quot;:&quot;elbowEdgeStyle&quot;,&quot;elbow&quot;:&quot;vertical&quot;,&quot;curved&quot;:0,&quot;rounded&quot;:0};" vertex="1" parent="yxJLWmAVken-WrYLLM8N-1">
          <mxGeometry x="15" y="140" width="10" height="80" as="geometry" />
        </mxCell>
        <mxCell id="yxJLWmAVken-WrYLLM8N-22" value="" style="html=1;points=[];perimeter=orthogonalPerimeter;outlineConnect=0;targetShapes=umlLifeline;portConstraint=eastwest;newEdgeStyle={&quot;edgeStyle&quot;:&quot;elbowEdgeStyle&quot;,&quot;elbow&quot;:&quot;vertical&quot;,&quot;curved&quot;:0,&quot;rounded&quot;:0};" vertex="1" parent="yxJLWmAVken-WrYLLM8N-1">
          <mxGeometry x="15" y="300" width="10" height="80" as="geometry" />
        </mxCell>
        <mxCell id="yxJLWmAVken-WrYLLM8N-33" value="" style="html=1;points=[];perimeter=orthogonalPerimeter;outlineConnect=0;targetShapes=umlLifeline;portConstraint=eastwest;newEdgeStyle={&quot;edgeStyle&quot;:&quot;elbowEdgeStyle&quot;,&quot;elbow&quot;:&quot;vertical&quot;,&quot;curved&quot;:0,&quot;rounded&quot;:0};" vertex="1" parent="yxJLWmAVken-WrYLLM8N-1">
          <mxGeometry x="15" y="525" width="10" height="115" as="geometry" />
        </mxCell>
        <mxCell id="yxJLWmAVken-WrYLLM8N-2" value="System" style="shape=umlLifeline;perimeter=lifelinePerimeter;whiteSpace=wrap;html=1;container=1;dropTarget=0;collapsible=0;recursiveResize=0;outlineConnect=0;portConstraint=eastwest;newEdgeStyle={&quot;edgeStyle&quot;:&quot;elbowEdgeStyle&quot;,&quot;elbow&quot;:&quot;vertical&quot;,&quot;curved&quot;:0,&quot;rounded&quot;:0};participant=umlControl;" vertex="1" parent="1">
          <mxGeometry x="500" y="30" width="40" height="730" as="geometry" />
        </mxCell>
        <mxCell id="yxJLWmAVken-WrYLLM8N-10" value="" style="html=1;points=[];perimeter=orthogonalPerimeter;outlineConnect=0;targetShapes=umlLifeline;portConstraint=eastwest;newEdgeStyle={&quot;edgeStyle&quot;:&quot;elbowEdgeStyle&quot;,&quot;elbow&quot;:&quot;vertical&quot;,&quot;curved&quot;:0,&quot;rounded&quot;:0};" vertex="1" parent="yxJLWmAVken-WrYLLM8N-2">
          <mxGeometry x="15" y="120" width="10" height="90" as="geometry" />
        </mxCell>
        <mxCell id="yxJLWmAVken-WrYLLM8N-19" value="" style="html=1;points=[];perimeter=orthogonalPerimeter;outlineConnect=0;targetShapes=umlLifeline;portConstraint=eastwest;newEdgeStyle={&quot;edgeStyle&quot;:&quot;elbowEdgeStyle&quot;,&quot;elbow&quot;:&quot;vertical&quot;,&quot;curved&quot;:0,&quot;rounded&quot;:0};" vertex="1" parent="yxJLWmAVken-WrYLLM8N-2">
          <mxGeometry x="15" y="280" width="10" height="150" as="geometry" />
        </mxCell>
        <mxCell id="yxJLWmAVken-WrYLLM8N-30" value="" style="html=1;points=[];perimeter=orthogonalPerimeter;outlineConnect=0;targetShapes=umlLifeline;portConstraint=eastwest;newEdgeStyle={&quot;edgeStyle&quot;:&quot;elbowEdgeStyle&quot;,&quot;elbow&quot;:&quot;vertical&quot;,&quot;curved&quot;:0,&quot;rounded&quot;:0};" vertex="1" parent="yxJLWmAVken-WrYLLM8N-2">
          <mxGeometry x="15" y="510" width="10" height="150" as="geometry" />
        </mxCell>
        <mxCell id="yxJLWmAVken-WrYLLM8N-4" value="Interfejs Użytkownika" style="shape=umlLifeline;perimeter=lifelinePerimeter;whiteSpace=wrap;html=1;container=1;dropTarget=0;collapsible=0;recursiveResize=0;outlineConnect=0;portConstraint=eastwest;newEdgeStyle={&quot;edgeStyle&quot;:&quot;elbowEdgeStyle&quot;,&quot;elbow&quot;:&quot;vertical&quot;,&quot;curved&quot;:0,&quot;rounded&quot;:0};participant=umlBoundary;size=30;" vertex="1" parent="1">
          <mxGeometry x="290" y="30" width="50" height="730" as="geometry" />
        </mxCell>
        <mxCell id="yxJLWmAVken-WrYLLM8N-7" value="" style="html=1;points=[];perimeter=orthogonalPerimeter;outlineConnect=0;targetShapes=umlLifeline;portConstraint=eastwest;newEdgeStyle={&quot;edgeStyle&quot;:&quot;elbowEdgeStyle&quot;,&quot;elbow&quot;:&quot;vertical&quot;,&quot;curved&quot;:0,&quot;rounded&quot;:0};" vertex="1" parent="yxJLWmAVken-WrYLLM8N-4">
          <mxGeometry x="20" y="90" width="10" height="130" as="geometry" />
        </mxCell>
        <mxCell id="yxJLWmAVken-WrYLLM8N-16" value="" style="html=1;points=[];perimeter=orthogonalPerimeter;outlineConnect=0;targetShapes=umlLifeline;portConstraint=eastwest;newEdgeStyle={&quot;edgeStyle&quot;:&quot;elbowEdgeStyle&quot;,&quot;elbow&quot;:&quot;vertical&quot;,&quot;curved&quot;:0,&quot;rounded&quot;:0};" vertex="1" parent="yxJLWmAVken-WrYLLM8N-4">
          <mxGeometry x="20" y="250" width="10" height="200" as="geometry" />
        </mxCell>
        <mxCell id="yxJLWmAVken-WrYLLM8N-27" value="" style="html=1;points=[];perimeter=orthogonalPerimeter;outlineConnect=0;targetShapes=umlLifeline;portConstraint=eastwest;newEdgeStyle={&quot;edgeStyle&quot;:&quot;elbowEdgeStyle&quot;,&quot;elbow&quot;:&quot;vertical&quot;,&quot;curved&quot;:0,&quot;rounded&quot;:0};" vertex="1" parent="yxJLWmAVken-WrYLLM8N-4">
          <mxGeometry x="20" y="490" width="10" height="200" as="geometry" />
        </mxCell>
        <mxCell id="yxJLWmAVken-WrYLLM8N-6" value="Użytkownik" style="shape=umlLifeline;perimeter=lifelinePerimeter;whiteSpace=wrap;html=1;container=1;dropTarget=0;collapsible=0;recursiveResize=0;outlineConnect=0;portConstraint=eastwest;newEdgeStyle={&quot;edgeStyle&quot;:&quot;elbowEdgeStyle&quot;,&quot;elbow&quot;:&quot;vertical&quot;,&quot;curved&quot;:0,&quot;rounded&quot;:0};participant=umlActor;" vertex="1" parent="1">
          <mxGeometry x="110" y="30" width="20" height="730" as="geometry" />
        </mxCell>
        <mxCell id="yxJLWmAVken-WrYLLM8N-8" value="Wybiera opcje &quot;Kup samochód&quot;" style="html=1;verticalAlign=bottom;endArrow=block;edgeStyle=elbowEdgeStyle;elbow=vertical;curved=0;rounded=0;" edge="1" target="yxJLWmAVken-WrYLLM8N-7" parent="1" source="yxJLWmAVken-WrYLLM8N-6">
          <mxGeometry relative="1" as="geometry">
            <mxPoint x="240" y="120" as="sourcePoint" />
            <Array as="points">
              <mxPoint x="200" y="130" />
            </Array>
          </mxGeometry>
        </mxCell>
        <mxCell id="yxJLWmAVken-WrYLLM8N-11" value="Wysyła żądanie zakupu samochodu" style="html=1;verticalAlign=bottom;endArrow=block;edgeStyle=elbowEdgeStyle;elbow=vertical;curved=0;rounded=0;" edge="1" target="yxJLWmAVken-WrYLLM8N-10" parent="1" source="yxJLWmAVken-WrYLLM8N-7">
          <mxGeometry relative="1" as="geometry">
            <mxPoint x="445" y="150" as="sourcePoint" />
            <Array as="points">
              <mxPoint x="390" y="160" />
            </Array>
          </mxGeometry>
        </mxCell>
        <mxCell id="yxJLWmAVken-WrYLLM8N-14" value="Sprawdza dostępność samochodu" style="html=1;verticalAlign=bottom;endArrow=block;edgeStyle=elbowEdgeStyle;elbow=vertical;curved=0;rounded=0;" edge="1" target="yxJLWmAVken-WrYLLM8N-13" parent="1" source="yxJLWmAVken-WrYLLM8N-2">
          <mxGeometry relative="1" as="geometry">
            <mxPoint x="645" y="170" as="sourcePoint" />
            <Array as="points">
              <mxPoint x="570" y="180" />
            </Array>
          </mxGeometry>
        </mxCell>
        <mxCell id="yxJLWmAVken-WrYLLM8N-15" value="Zwraca informacje o dostępności samochodu" style="html=1;verticalAlign=bottom;endArrow=open;dashed=1;endSize=8;edgeStyle=elbowEdgeStyle;elbow=vertical;curved=0;rounded=0;" edge="1" source="yxJLWmAVken-WrYLLM8N-13" parent="1" target="yxJLWmAVken-WrYLLM8N-2">
          <mxGeometry x="-0.0281" relative="1" as="geometry">
            <mxPoint x="645" y="245" as="targetPoint" />
            <mxPoint as="offset" />
          </mxGeometry>
        </mxCell>
        <mxCell id="yxJLWmAVken-WrYLLM8N-12" value="Przesyła dostępność samochodu" style="html=1;verticalAlign=bottom;endArrow=open;dashed=1;endSize=8;edgeStyle=elbowEdgeStyle;elbow=vertical;curved=0;rounded=0;" edge="1" source="yxJLWmAVken-WrYLLM8N-10" parent="1" target="yxJLWmAVken-WrYLLM8N-7">
          <mxGeometry x="0.0051" relative="1" as="geometry">
            <mxPoint x="445" y="225" as="targetPoint" />
            <Array as="points">
              <mxPoint x="390" y="220" />
            </Array>
            <mxPoint as="offset" />
          </mxGeometry>
        </mxCell>
        <mxCell id="yxJLWmAVken-WrYLLM8N-9" value="Przedstawia samochód" style="html=1;verticalAlign=bottom;endArrow=open;dashed=1;endSize=8;edgeStyle=elbowEdgeStyle;elbow=vertical;curved=0;rounded=0;" edge="1" source="yxJLWmAVken-WrYLLM8N-7" parent="1" target="yxJLWmAVken-WrYLLM8N-6">
          <mxGeometry x="0.1429" relative="1" as="geometry">
            <mxPoint x="240" y="195" as="targetPoint" />
            <Array as="points">
              <mxPoint x="240" y="230" />
            </Array>
            <mxPoint as="offset" />
          </mxGeometry>
        </mxCell>
        <mxCell id="yxJLWmAVken-WrYLLM8N-17" value="Wypełnia formularz kupna&lt;br&gt;(sposób płatności,dodatkowe ubezpieczenie)" style="html=1;verticalAlign=bottom;endArrow=block;edgeStyle=elbowEdgeStyle;elbow=vertical;curved=0;rounded=0;" edge="1" target="yxJLWmAVken-WrYLLM8N-16" parent="1" source="yxJLWmAVken-WrYLLM8N-6">
          <mxGeometry x="-0.5748" relative="1" as="geometry">
            <mxPoint x="240" y="280" as="sourcePoint" />
            <Array as="points">
              <mxPoint x="180" y="290" />
            </Array>
            <mxPoint as="offset" />
          </mxGeometry>
        </mxCell>
        <mxCell id="yxJLWmAVken-WrYLLM8N-18" value="Przedstawia dane szczegółowe kupna" style="html=1;verticalAlign=bottom;endArrow=open;dashed=1;endSize=8;edgeStyle=elbowEdgeStyle;elbow=vertical;curved=0;rounded=0;" edge="1" source="yxJLWmAVken-WrYLLM8N-16" parent="1" target="yxJLWmAVken-WrYLLM8N-6">
          <mxGeometry relative="1" as="geometry">
            <mxPoint x="240" y="355" as="targetPoint" />
            <Array as="points">
              <mxPoint x="270" y="460" />
              <mxPoint x="190" y="440" />
              <mxPoint x="260" y="355" />
            </Array>
          </mxGeometry>
        </mxCell>
        <mxCell id="yxJLWmAVken-WrYLLM8N-20" value="Przesyła szczegóły kupna" style="html=1;verticalAlign=bottom;endArrow=block;edgeStyle=elbowEdgeStyle;elbow=vertical;curved=0;rounded=0;" edge="1" target="yxJLWmAVken-WrYLLM8N-19" parent="1" source="yxJLWmAVken-WrYLLM8N-16">
          <mxGeometry relative="1" as="geometry">
            <mxPoint x="445" y="310" as="sourcePoint" />
            <Array as="points">
              <mxPoint x="370" y="320" />
            </Array>
          </mxGeometry>
        </mxCell>
        <mxCell id="yxJLWmAVken-WrYLLM8N-21" value="Przesyła fakturę" style="html=1;verticalAlign=bottom;endArrow=open;dashed=1;endSize=8;edgeStyle=elbowEdgeStyle;elbow=vertical;curved=0;rounded=0;" edge="1" source="yxJLWmAVken-WrYLLM8N-19" parent="1" target="yxJLWmAVken-WrYLLM8N-16">
          <mxGeometry relative="1" as="geometry">
            <mxPoint x="445" y="385" as="targetPoint" />
            <Array as="points">
              <mxPoint x="410" y="440" />
              <mxPoint x="400" y="370" />
            </Array>
          </mxGeometry>
        </mxCell>
        <mxCell id="yxJLWmAVken-WrYLLM8N-23" value="Pobiera dane szczegółowę&lt;br&gt;(cena samochodu, ubez ...)" style="html=1;verticalAlign=bottom;endArrow=block;edgeStyle=elbowEdgeStyle;elbow=vertical;curved=0;rounded=0;" edge="1" target="yxJLWmAVken-WrYLLM8N-22" parent="1" source="yxJLWmAVken-WrYLLM8N-19">
          <mxGeometry relative="1" as="geometry">
            <mxPoint x="645" y="330" as="sourcePoint" />
            <Array as="points">
              <mxPoint x="560" y="340" />
            </Array>
            <mxPoint as="offset" />
          </mxGeometry>
        </mxCell>
        <mxCell id="yxJLWmAVken-WrYLLM8N-24" value="Zwraca informacje" style="html=1;verticalAlign=bottom;endArrow=open;dashed=1;endSize=8;edgeStyle=elbowEdgeStyle;elbow=vertical;curved=0;rounded=0;" edge="1" source="yxJLWmAVken-WrYLLM8N-22" parent="1" target="yxJLWmAVken-WrYLLM8N-19">
          <mxGeometry relative="1" as="geometry">
            <mxPoint x="645" y="405" as="targetPoint" />
          </mxGeometry>
        </mxCell>
        <mxCell id="yxJLWmAVken-WrYLLM8N-25" value="" style="html=1;points=[];perimeter=orthogonalPerimeter;outlineConnect=0;targetShapes=umlLifeline;portConstraint=eastwest;newEdgeStyle={&quot;edgeStyle&quot;:&quot;elbowEdgeStyle&quot;,&quot;elbow&quot;:&quot;vertical&quot;,&quot;curved&quot;:0,&quot;rounded&quot;:0};" vertex="1" parent="1">
          <mxGeometry x="520" y="390" width="10" height="40" as="geometry" />
        </mxCell>
        <mxCell id="yxJLWmAVken-WrYLLM8N-26" value="Oblicza koszty,&lt;br&gt;Przygotowuje Fakture" style="html=1;align=left;spacingLeft=2;endArrow=block;rounded=0;edgeStyle=orthogonalEdgeStyle;curved=0;rounded=0;" edge="1" target="yxJLWmAVken-WrYLLM8N-25" parent="1" source="yxJLWmAVken-WrYLLM8N-25">
          <mxGeometry relative="1" as="geometry">
            <mxPoint x="525" y="370" as="sourcePoint" />
            <Array as="points">
              <mxPoint x="555" y="400" />
              <mxPoint x="555" y="410" />
            </Array>
          </mxGeometry>
        </mxCell>
        <mxCell id="yxJLWmAVken-WrYLLM8N-28" value="Płaci za samochód" style="html=1;verticalAlign=bottom;endArrow=block;edgeStyle=elbowEdgeStyle;elbow=vertical;curved=0;rounded=0;" edge="1" target="yxJLWmAVken-WrYLLM8N-27" parent="1" source="yxJLWmAVken-WrYLLM8N-6">
          <mxGeometry relative="1" as="geometry">
            <mxPoint x="240" y="520" as="sourcePoint" />
            <Array as="points">
              <mxPoint x="170" y="530" />
            </Array>
          </mxGeometry>
        </mxCell>
        <mxCell id="yxJLWmAVken-WrYLLM8N-31" value="Informuje o kupnie samochodu" style="html=1;verticalAlign=bottom;endArrow=block;edgeStyle=elbowEdgeStyle;elbow=vertical;curved=0;rounded=0;" edge="1" target="yxJLWmAVken-WrYLLM8N-30" parent="1" source="yxJLWmAVken-WrYLLM8N-27">
          <mxGeometry x="-0.0769" relative="1" as="geometry">
            <mxPoint x="445" y="530" as="sourcePoint" />
            <Array as="points">
              <mxPoint x="370" y="550" />
            </Array>
            <mxPoint as="offset" />
          </mxGeometry>
        </mxCell>
        <mxCell id="yxJLWmAVken-WrYLLM8N-29" value="Wysyła potwierdzenie kupna" style="html=1;verticalAlign=bottom;endArrow=open;dashed=1;endSize=8;edgeStyle=elbowEdgeStyle;elbow=vertical;curved=0;rounded=0;" edge="1" source="yxJLWmAVken-WrYLLM8N-27" parent="1" target="yxJLWmAVken-WrYLLM8N-6">
          <mxGeometry relative="1" as="geometry">
            <mxPoint x="240" y="595" as="targetPoint" />
            <Array as="points">
              <mxPoint x="250" y="700" />
              <mxPoint x="180" y="650" />
            </Array>
          </mxGeometry>
        </mxCell>
        <mxCell id="yxJLWmAVken-WrYLLM8N-32" value="Przesyła informacje o poprawnym kupnie" style="html=1;verticalAlign=bottom;endArrow=open;dashed=1;endSize=8;edgeStyle=elbowEdgeStyle;elbow=vertical;curved=0;rounded=0;" edge="1" source="yxJLWmAVken-WrYLLM8N-30" parent="1" target="yxJLWmAVken-WrYLLM8N-27">
          <mxGeometry relative="1" as="geometry">
            <mxPoint x="445" y="605" as="targetPoint" />
            <Array as="points">
              <mxPoint x="390" y="680" />
              <mxPoint x="470" y="620" />
            </Array>
          </mxGeometry>
        </mxCell>
        <mxCell id="yxJLWmAVken-WrYLLM8N-34" value="Sprawdza status kupna" style="html=1;verticalAlign=bottom;endArrow=block;edgeStyle=elbowEdgeStyle;elbow=vertical;curved=0;rounded=0;" edge="1" target="yxJLWmAVken-WrYLLM8N-33" parent="1" source="yxJLWmAVken-WrYLLM8N-2">
          <mxGeometry relative="1" as="geometry">
            <mxPoint x="645" y="555" as="sourcePoint" />
            <Array as="points">
              <mxPoint x="580" y="570" />
            </Array>
          </mxGeometry>
        </mxCell>
        <mxCell id="yxJLWmAVken-WrYLLM8N-35" value="Zwraca informacje o statusie" style="html=1;verticalAlign=bottom;endArrow=open;dashed=1;endSize=8;edgeStyle=elbowEdgeStyle;elbow=vertical;curved=0;rounded=0;" edge="1" source="yxJLWmAVken-WrYLLM8N-33" parent="1" target="yxJLWmAVken-WrYLLM8N-30">
          <mxGeometry relative="1" as="geometry">
            <mxPoint x="645" y="630" as="targetPoint" />
            <Array as="points">
              <mxPoint x="600" y="660" />
              <mxPoint x="580" y="610" />
            </Array>
          </mxGeometry>
        </mxCell>
        <mxCell id="yxJLWmAVken-WrYLLM8N-38" value="Break" style="shape=umlFrame;whiteSpace=wrap;html=1;pointerEvents=0;" vertex="1" parent="1">
          <mxGeometry x="650" y="580" width="240" height="70" as="geometry" />
        </mxCell>
        <mxCell id="yxJLWmAVken-WrYLLM8N-39" value="Jeśli w systemie wystąpił błąd transakcji" style="text;html=1;strokeColor=none;fillColor=none;align=center;verticalAlign=middle;whiteSpace=wrap;rounded=0;" vertex="1" parent="1">
          <mxGeometry x="710" y="580" width="190" height="30" as="geometry" />
        </mxCell>
        <mxCell id="yxJLWmAVken-WrYLLM8N-40" value="" style="html=1;points=[];perimeter=orthogonalPerimeter;outlineConnect=0;targetShapes=umlLifeline;portConstraint=eastwest;newEdgeStyle={&quot;edgeStyle&quot;:&quot;elbowEdgeStyle&quot;,&quot;elbow&quot;:&quot;vertical&quot;,&quot;curved&quot;:0,&quot;rounded&quot;:0};" vertex="1" parent="1">
          <mxGeometry x="725" y="610" width="10" height="40" as="geometry" />
        </mxCell>
        <mxCell id="yxJLWmAVken-WrYLLM8N-41" value="Aktualizuje status samochodu" style="html=1;align=left;spacingLeft=2;endArrow=block;rounded=0;edgeStyle=orthogonalEdgeStyle;curved=0;rounded=0;" edge="1" target="yxJLWmAVken-WrYLLM8N-40" parent="1" source="yxJLWmAVken-WrYLLM8N-40">
          <mxGeometry relative="1" as="geometry">
            <mxPoint x="730" y="590" as="sourcePoint" />
            <Array as="points">
              <mxPoint x="760" y="620" />
              <mxPoint x="760" y="640" />
            </Array>
          </mxGeometry>
        </mxCell>
      </root>
    </mxGraphModel>
  </diagram>
</mxfile>
